<svg width="48" height="37" viewBox="0 0 48 37" fill="none" xmlns="http://www.w3.org/2000/svg">
<mask id="path-1-inside-1_6_46" fill="white">
<path fill-rule="evenodd" clip-rule="evenodd" d="M17.807 0.749985C16.3443 0.749985 15.0948 1.80483 14.8495 3.2468L14.1974 7.07935H4.66666C1.90523 7.07935 -0.333344 9.31793 -0.333344 12.0793V32C-0.333344 34.7614 1.90523 37 4.66665 37H43C45.7614 37 48 34.7614 48 32V12.0794C48 9.31793 45.7614 7.07935 43 7.07935H32.1127L31.3539 3.17738C31.0798 1.7677 29.8452 0.749985 28.4091 0.749985H17.807Z"/>
</mask>
<path d="M14.8495 3.2468L11.892 2.74361V2.74361L14.8495 3.2468ZM14.1974 7.07935V10.0794H16.7301L17.1549 7.58254L14.1974 7.07935ZM32.1127 7.07935L29.1678 7.65196L29.6398 10.0794H32.1127V7.07935ZM31.3539 3.17738L28.4091 3.74998L28.4091 3.74999L31.3539 3.17738ZM17.807 3.74998V3.74998V-2.25002C14.8816 -2.25002 12.3827 -0.140322 11.892 2.74361L17.807 3.74998ZM17.1549 7.58254L17.807 3.74998L11.892 2.74361L11.2399 6.57617L17.1549 7.58254ZM4.66666 10.0794H14.1974V4.07935H4.66666V10.0794ZM2.66666 12.0793C2.66666 10.9748 3.56209 10.0794 4.66666 10.0794V4.07935C0.24838 4.07935 -3.33334 7.66107 -3.33334 12.0793H2.66666ZM2.66666 32V12.0793H-3.33334V32H2.66666ZM4.66665 34C3.56209 34 2.66666 33.1046 2.66666 32H-3.33334C-3.33334 36.4183 0.248374 40 4.66665 40V34ZM43 34H4.66665V40H43V34ZM45 32C45 33.1046 44.1046 34 43 34V40C47.4183 40 51 36.4183 51 32H45ZM45 12.0794V32H51V12.0794H45ZM43 10.0794C44.1046 10.0794 45 10.9748 45 12.0794H51C51 7.66108 47.4183 4.07935 43 4.07935V10.0794ZM32.1127 10.0794H43V4.07935H32.1127V10.0794ZM28.4091 3.74999L29.1678 7.65196L35.0575 6.50674L34.2988 2.60477L28.4091 3.74999ZM28.4091 3.74998V3.74998L34.2988 2.60477C33.7506 -0.214586 31.2812 -2.25002 28.4091 -2.25002V3.74998ZM17.807 3.74998H28.4091V-2.25002H17.807V3.74998Z" fill="#062441" mask="url(#path-1-inside-1_6_46)"/>
<path d="M29.3819 21.4643C29.3819 24.8522 26.815 27.4444 23.8333 27.4444C20.8516 27.4444 18.2847 24.8522 18.2847 21.4643C18.2847 18.0763 20.8516 15.4841 23.8333 15.4841C26.815 15.4841 29.3819 18.0763 29.3819 21.4643Z" stroke="#145595" stroke-width="3"/>
<path d="M34.9097 15.1349C42.1597 15.1349 42.9653 15.1349 42.4618 15.1349" stroke="#145595" stroke-width="2"/>
</svg>
